<svg xmlns="http://www.w3.org/2000/svg" viewBox="0 0 420.68 129.93"><defs><style>.cls-1{fill:#2ab5e8;}.cls-2{font-size:71.64px;fill:#182e38;font-family:SFProDisplay-Semibold, SF Pro Display;font-weight:600;}</style></defs><title>Asset 1</title><g id="Layer_2" data-name="Layer 2"><g id="Layer_1-2" data-name="Layer 1"><path class="cls-1" d="M105.81,16.08c4.6,7.44,7.53,15.17,4.52,24.07-3.37,10-14.88,16.53-25.08,14.14-6.31-1.47-8.28-4-8.21-10.5,0-1.5.1-3,0-4.5-.38-7.81-5.6-13.37-12.61-13.49S51.89,31,51.17,38.67c-.21,2.31,0,4.66-.18,7-.32,4.39-2.69,6.65-7.18,6.42-3.32-.18-6.66-.63-9.78,1-5.51,2-8.93,5.79-9,11.76,0,5.65,3,9.67,8.1,12.09,3,1.4,6.14,1.11,9.3,1,6-.13,8.12,1.81,8.54,7.75.09,1.16,0,2.33,0,3.49.13,8.62,5.62,14.65,13.12,14.44,8.32-.24,12.94-5.35,13-14.36C77.22,78.69,77.34,78.51,87,75c14.78.57,24.32,8.6,24.47,21.52.13,11.74-6.21,20.12-16,25.84C70.78,136.69,34.65,130,16.29,107.9c-19.12-23-21.5-50.45-6.66-76.57a7.94,7.94,0,0,0,.47-1.4l6.82-9.06.11-.06c.58,0,.89-.29.86-.9l.08-.19c1.5-1.3,3-2.58,4.49-3.9C44.93-4.36,85.53-6.26,105.81,16.08Z"/><text class="cls-2" transform="translate(134.64 84.29)">Checkup</text></g></g></svg>